<mxfile host="app.diagrams.net" modified="2021-10-16T17:48:56.432Z" agent="5.0 (Windows)" etag="v-y3DE1PD1o2fmtq290p" version="15.4.1" type="github">
  <diagram id="U4mg9C_StiXj8ZKMRVDW" name="Page-1">
    <mxGraphModel dx="1422" dy="780" grid="1" gridSize="10" guides="1" tooltips="1" connect="1" arrows="1" fold="1" page="1" pageScale="1" pageWidth="827" pageHeight="1169" math="0" shadow="0">
      <root>
        <mxCell id="0" />
        <mxCell id="1" parent="0" />
      </root>
    </mxGraphModel>
  </diagram>
</mxfile>
